<svg xmlns="http://www.w3.org/2000/svg" version="1.1" style="background-color:#FEFEFE;" viewBox="0 0 2075 1699" width="2075" height="1699"><defs></defs><rect x="0" y="0" width="2075" height="1699" fill="#FEFEFE" stroke="none"></rect><g><g class="title" data-source-line="5"><text x="929.27" y="23" font-size="14" fill="#000000" xml:space="preserve" style="white-space: pre" font-weight="bold" font-family="sans-serif">Component Diagram - Bopacorp</text></g><g class="cluster" data-qualified-name="FrontendLayer" id="ent0001" data-source-line="7"><path d="M1518.50,43 L1621.40,43 A3.75,3.75 0 0 1 1623.90,45.50 L1630.90,65 L1669.50,65 A2.50,2.50 0 0 1 1672,67.50 L1672,137.50 A2.50,2.50 0 0 1 1669.50,140 L1518.50,140 A2.50,2.50 0 0 1 1516,137.50 L1516,45.50 A2.50,2.50 0 0 1 1518.50,43" fill="#E3F2FD" stroke="#000000" stroke-width="1.50"></path><line x1="1516" y1="65" x2="1630.90" y2="65" stroke="#000000" stroke-width="1.50"></line><text x="1520" y="58" font-size="14" fill="#000000" xml:space="preserve" style="white-space: pre" font-weight="bold" font-family="sans-serif">Frontend Layer</text></g><g class="cluster" data-qualified-name="WebPackage" id="ent0003" data-source-line="11"><path d="M1380.50,292 L1477.17,292 A3.75,3.75 0 0 1 1479.67,294.50 L1486.67,314 L2026.50,314 A2.50,2.50 0 0 1 2029,316.50 L2029,730.50 A2.50,2.50 0 0 1 2026.50,733 L1380.50,733 A2.50,2.50 0 0 1 1378,730.50 L1378,294.50 A2.50,2.50 0 0 1 1380.50,292" fill="#F3E5F5" stroke="#000000" stroke-width="1.50"></path><line x1="1378" y1="314" x2="1486.67" y2="314" stroke="#000000" stroke-width="1.50"></line><text x="1382" y="307" font-size="14" fill="#000000" xml:space="preserve" style="white-space: pre" font-weight="bold" font-family="sans-serif">bopacorp-web</text></g><g class="cluster" data-qualified-name="CRMPackage" id="ent0010" data-source-line="20"><path d="M526.50,292 L621.62,292 A3.75,3.75 0 0 1 624.12,294.50 L631.12,314 L1351.50,314 A2.50,2.50 0 0 1 1354,316.50 L1354,730.50 A2.50,2.50 0 0 1 1351.50,733 L526.50,733 A2.50,2.50 0 0 1 524,730.50 L524,294.50 A2.50,2.50 0 0 1 526.50,292" fill="#E1F5FE" stroke="#000000" stroke-width="1.50"></path><line x1="524" y1="314" x2="631.12" y2="314" stroke="#000000" stroke-width="1.50"></line><text x="528" y="307" font-size="14" fill="#000000" xml:space="preserve" style="white-space: pre" font-weight="bold" font-family="sans-serif">bopacorp-crm</text></g><g class="cluster" data-qualified-name="APIPackage" id="ent0018" data-source-line="30"><path d="M143.50,901 L233.17,901 A3.75,3.75 0 0 1 235.67,903.50 L242.67,923 L792.50,923 A2.50,2.50 0 0 1 795,925.50 L795,1423.50 A2.50,2.50 0 0 1 792.50,1426 L143.50,1426 A2.50,2.50 0 0 1 141,1423.50 L141,903.50 A2.50,2.50 0 0 1 143.50,901" fill="#E8F5E9" stroke="#000000" stroke-width="1.50"></path><line x1="141" y1="923" x2="242.67" y2="923" stroke="#000000" stroke-width="1.50"></line><text x="145" y="916" font-size="14" fill="#000000" xml:space="preserve" style="white-space: pre" font-weight="bold" font-family="sans-serif">bopacorp-api</text></g><g class="cluster" data-qualified-name="SharedPackage" id="ent0028" data-source-line="42"><path d="M8.50,420 L136.73,420 A3.75,3.75 0 0 1 139.23,422.50 L146.23,442 L497.50,442 A2.50,2.50 0 0 1 500,444.50 L500,514.50 A2.50,2.50 0 0 1 497.50,517 L8.50,517 A2.50,2.50 0 0 1 6,514.50 L6,422.50 A2.50,2.50 0 0 1 8.50,420" fill="#FFF3E0" stroke="#000000" stroke-width="1.50"></path><line x1="6" y1="442" x2="146.23" y2="442" stroke="#000000" stroke-width="1.50"></line><text x="10" y="435" font-size="14" fill="#000000" xml:space="preserve" style="white-space: pre" font-weight="bold" font-family="sans-serif">@bopacorp/shared</text></g><g class="cluster" data-qualified-name="External" id="ent0032" data-source-line="48"><path d="M152.50,1594 L270.24,1594 A3.75,3.75 0 0 1 272.74,1596.50 L279.74,1616 L755.50,1616 A2.50,2.50 0 0 1 758,1618.50 L758,1687.50 A2.50,2.50 0 0 1 755.50,1690 L152.50,1690 A2.50,2.50 0 0 1 150,1687.50 L150,1596.50 A2.50,2.50 0 0 1 152.50,1594" fill="#F5F5F5" stroke="#000000" stroke-width="1.50"></path><line x1="150" y1="1616" x2="279.74" y2="1616" stroke="#000000" stroke-width="1.50"></line><text x="154" y="1609" font-size="14" fill="#000000" xml:space="preserve" style="white-space: pre" font-weight="bold" font-family="sans-serif">External Services</text></g><g class="entity" data-qualified-name="FrontendLayer.Browser" id="ent0002" data-source-line="8"><rect x="1532.12" y="78" width="123.77" height="46" rx="2.50" ry="2.50" fill="#F1F1F1" stroke="#181818" stroke-width="0.50"></rect><rect x="1635.89" y="83" width="15" height="10" fill="#F1F1F1" stroke="#181818" stroke-width="0.50"></rect><rect x="1633.89" y="85" width="4" height="2" fill="#F1F1F1" stroke="#181818" stroke-width="0.50"></rect><rect x="1633.89" y="89" width="4" height="2" fill="#F1F1F1" stroke="#181818" stroke-width="0.50"></rect><text x="1547.12" y="111" font-size="14" fill="#000000" xml:space="preserve" style="white-space: pre" font-family="sans-serif">Web Browser</text></g><g class="entity" data-qualified-name="WebPackage.WebSPA" id="ent0004" data-source-line="12"><rect x="1484.97" y="327" width="218.07" height="46" rx="2.50" ry="2.50" fill="#F1F1F1" stroke="#181818" stroke-width="0.50"></rect><rect x="1683.04" y="332" width="15" height="10" fill="#F1F1F1" stroke="#181818" stroke-width="0.50"></rect><rect x="1681.04" y="334" width="4" height="2" fill="#F1F1F1" stroke="#181818" stroke-width="0.50"></rect><rect x="1681.04" y="338" width="4" height="2" fill="#F1F1F1" stroke="#181818" stroke-width="0.50"></rect><text x="1499.97" y="360" font-size="14" fill="#000000" xml:space="preserve" style="white-space: pre" font-family="sans-serif">Public SPA (React 19 + Vite)</text></g><g class="entity" data-qualified-name="WebPackage.WebPages" id="ent0005" data-source-line="13"><rect x="1537.94" y="564" width="112.12" height="46" rx="2.50" ry="2.50" fill="#F1F1F1" stroke="#181818" stroke-width="0.50"></rect><rect x="1630.06" y="569" width="15" height="10" fill="#F1F1F1" stroke="#181818" stroke-width="0.50"></rect><rect x="1628.06" y="571" width="4" height="2" fill="#F1F1F1" stroke="#181818" stroke-width="0.50"></rect><rect x="1628.06" y="575" width="4" height="2" fill="#F1F1F1" stroke="#181818" stroke-width="0.50"></rect><text x="1552.94" y="597" font-size="14" fill="#000000" xml:space="preserve" style="white-space: pre" font-family="sans-serif">Web Pages</text></g><g class="entity" data-qualified-name="WebPackage.WebClient" id="ent0006" data-source-line="14"><rect x="1393.94" y="671" width="182.12" height="46" rx="2.50" ry="2.50" fill="#F1F1F1" stroke="#181818" stroke-width="0.50"></rect><rect x="1556.06" y="676" width="15" height="10" fill="#F1F1F1" stroke="#181818" stroke-width="0.50"></rect><rect x="1554.06" y="678" width="4" height="2" fill="#F1F1F1" stroke="#181818" stroke-width="0.50"></rect><rect x="1554.06" y="682" width="4" height="2" fill="#F1F1F1" stroke="#181818" stroke-width="0.50"></rect><text x="1408.94" y="704" font-size="14" fill="#000000" xml:space="preserve" style="white-space: pre" font-family="sans-serif">Web API Client (Axios)</text></g><g class="entity" data-qualified-name="WebPackage.WebRouter" id="ent0007" data-source-line="15"><rect x="1523.42" y="455" width="141.16" height="46" rx="2.50" ry="2.50" fill="#F1F1F1" stroke="#181818" stroke-width="0.50"></rect><rect x="1644.58" y="460" width="15" height="10" fill="#F1F1F1" stroke="#181818" stroke-width="0.50"></rect><rect x="1642.58" y="462" width="4" height="2" fill="#F1F1F1" stroke="#181818" stroke-width="0.50"></rect><rect x="1642.58" y="466" width="4" height="2" fill="#F1F1F1" stroke="#181818" stroke-width="0.50"></rect><text x="1538.42" y="488" font-size="14" fill="#000000" xml:space="preserve" style="white-space: pre" font-family="sans-serif">React Router v7</text></g><g class="entity" data-qualified-name="WebPackage.WebForms" id="ent0008" data-source-line="16"><rect x="1611.15" y="671" width="149.70" height="46" rx="2.50" ry="2.50" fill="#F1F1F1" stroke="#181818" stroke-width="0.50"></rect><rect x="1740.85" y="676" width="15" height="10" fill="#F1F1F1" stroke="#181818" stroke-width="0.50"></rect><rect x="1738.85" y="678" width="4" height="2" fill="#F1F1F1" stroke="#181818" stroke-width="0.50"></rect><rect x="1738.85" y="682" width="4" height="2" fill="#F1F1F1" stroke="#181818" stroke-width="0.50"></rect><text x="1626.15" y="704" font-size="14" fill="#000000" xml:space="preserve" style="white-space: pre" font-family="sans-serif">React Hook Form</text></g><g class="entity" data-qualified-name="WebPackage.WebUI" id="ent0009" data-source-line="17"><rect x="1795.48" y="671" width="217.04" height="46" rx="2.50" ry="2.50" fill="#F1F1F1" stroke="#181818" stroke-width="0.50"></rect><rect x="1992.52" y="676" width="15" height="10" fill="#F1F1F1" stroke="#181818" stroke-width="0.50"></rect><rect x="1990.52" y="678" width="4" height="2" fill="#F1F1F1" stroke="#181818" stroke-width="0.50"></rect><rect x="1990.52" y="682" width="4" height="2" fill="#F1F1F1" stroke="#181818" stroke-width="0.50"></rect><text x="1810.48" y="704" font-size="14" fill="#000000" xml:space="preserve" style="white-space: pre" font-family="sans-serif">Tailwind CSS v4 + shadcn/ui</text></g><g class="entity" data-qualified-name="CRMPackage.CRMSPA" id="ent0011" data-source-line="21"><rect x="928.09" y="327" width="211.82" height="46" rx="2.50" ry="2.50" fill="#F1F1F1" stroke="#181818" stroke-width="0.50"></rect><rect x="1119.91" y="332" width="15" height="10" fill="#F1F1F1" stroke="#181818" stroke-width="0.50"></rect><rect x="1117.91" y="334" width="4" height="2" fill="#F1F1F1" stroke="#181818" stroke-width="0.50"></rect><rect x="1117.91" y="338" width="4" height="2" fill="#F1F1F1" stroke="#181818" stroke-width="0.50"></rect><text x="943.09" y="360" font-size="14" fill="#000000" xml:space="preserve" style="white-space: pre" font-family="sans-serif">CRM SPA (React 19 + Vite)</text></g><g class="entity" data-qualified-name="CRMPackage.CRMPages" id="ent0012" data-source-line="22"><rect x="849.27" y="564" width="115.47" height="46" rx="2.50" ry="2.50" fill="#F1F1F1" stroke="#181818" stroke-width="0.50"></rect><rect x="944.74" y="569" width="15" height="10" fill="#F1F1F1" stroke="#181818" stroke-width="0.50"></rect><rect x="942.74" y="571" width="4" height="2" fill="#F1F1F1" stroke="#181818" stroke-width="0.50"></rect><rect x="942.74" y="575" width="4" height="2" fill="#F1F1F1" stroke="#181818" stroke-width="0.50"></rect><text x="864.27" y="597" font-size="14" fill="#000000" xml:space="preserve" style="white-space: pre" font-family="sans-serif">CRM Pages</text></g><g class="entity" data-qualified-name="CRMPackage.CRMClient" id="ent0013" data-source-line="23"><rect x="540.27" y="671" width="185.47" height="46" rx="2.50" ry="2.50" fill="#F1F1F1" stroke="#181818" stroke-width="0.50"></rect><rect x="705.74" y="676" width="15" height="10" fill="#F1F1F1" stroke="#181818" stroke-width="0.50"></rect><rect x="703.74" y="678" width="4" height="2" fill="#F1F1F1" stroke="#181818" stroke-width="0.50"></rect><rect x="703.74" y="682" width="4" height="2" fill="#F1F1F1" stroke="#181818" stroke-width="0.50"></rect><text x="555.27" y="704" font-size="14" fill="#000000" xml:space="preserve" style="white-space: pre" font-family="sans-serif">CRM API Client (Axios)</text></g><g class="entity" data-qualified-name="CRMPackage.CRMRouter" id="ent0014" data-source-line="24"><rect x="949.42" y="455" width="141.16" height="46" rx="2.50" ry="2.50" fill="#F1F1F1" stroke="#181818" stroke-width="0.50"></rect><rect x="1070.58" y="460" width="15" height="10" fill="#F1F1F1" stroke="#181818" stroke-width="0.50"></rect><rect x="1068.58" y="462" width="4" height="2" fill="#F1F1F1" stroke="#181818" stroke-width="0.50"></rect><rect x="1068.58" y="466" width="4" height="2" fill="#F1F1F1" stroke="#181818" stroke-width="0.50"></rect><text x="964.42" y="488" font-size="14" fill="#000000" xml:space="preserve" style="white-space: pre" font-family="sans-serif">React Router v7</text></g><g class="entity" data-qualified-name="CRMPackage.CRMForms" id="ent0015" data-source-line="25"><rect x="761.15" y="671" width="149.70" height="46" rx="2.50" ry="2.50" fill="#F1F1F1" stroke="#181818" stroke-width="0.50"></rect><rect x="890.85" y="676" width="15" height="10" fill="#F1F1F1" stroke="#181818" stroke-width="0.50"></rect><rect x="888.85" y="678" width="4" height="2" fill="#F1F1F1" stroke="#181818" stroke-width="0.50"></rect><rect x="888.85" y="682" width="4" height="2" fill="#F1F1F1" stroke="#181818" stroke-width="0.50"></rect><text x="776.15" y="704" font-size="14" fill="#000000" xml:space="preserve" style="white-space: pre" font-family="sans-serif">React Hook Form</text></g><g class="entity" data-qualified-name="CRMPackage.CRMState" id="ent0016" data-source-line="26"><rect x="946.20" y="671" width="139.60" height="46" rx="2.50" ry="2.50" fill="#F1F1F1" stroke="#181818" stroke-width="0.50"></rect><rect x="1065.80" y="676" width="15" height="10" fill="#F1F1F1" stroke="#181818" stroke-width="0.50"></rect><rect x="1063.80" y="678" width="4" height="2" fill="#F1F1F1" stroke="#181818" stroke-width="0.50"></rect><rect x="1063.80" y="682" width="4" height="2" fill="#F1F1F1" stroke="#181818" stroke-width="0.50"></rect><text x="961.20" y="704" font-size="14" fill="#000000" xml:space="preserve" style="white-space: pre" font-family="sans-serif">TanStack Query</text></g><g class="entity" data-qualified-name="CRMPackage.CRMUI" id="ent0017" data-source-line="27"><rect x="1120.48" y="671" width="217.04" height="46" rx="2.50" ry="2.50" fill="#F1F1F1" stroke="#181818" stroke-width="0.50"></rect><rect x="1317.52" y="676" width="15" height="10" fill="#F1F1F1" stroke="#181818" stroke-width="0.50"></rect><rect x="1315.52" y="678" width="4" height="2" fill="#F1F1F1" stroke="#181818" stroke-width="0.50"></rect><rect x="1315.52" y="682" width="4" height="2" fill="#F1F1F1" stroke="#181818" stroke-width="0.50"></rect><text x="1135.48" y="704" font-size="14" fill="#000000" xml:space="preserve" style="white-space: pre" font-family="sans-serif">Tailwind CSS v4 + shadcn/ui</text></g><g class="entity" data-qualified-name="APIPackage.HTTPServer" id="ent0019" data-source-line="31"><rect x="595.31" y="936" width="147.37" height="46" rx="2.50" ry="2.50" fill="#F1F1F1" stroke="#181818" stroke-width="0.50"></rect><rect x="722.68" y="941" width="15" height="10" fill="#F1F1F1" stroke="#181818" stroke-width="0.50"></rect><rect x="720.68" y="943" width="4" height="2" fill="#F1F1F1" stroke="#181818" stroke-width="0.50"></rect><rect x="720.68" y="947" width="4" height="2" fill="#F1F1F1" stroke="#181818" stroke-width="0.50"></rect><text x="610.31" y="969" font-size="14" fill="#000000" xml:space="preserve" style="white-space: pre" font-family="sans-serif">Express 5 Server</text></g><g class="entity" data-qualified-name="APIPackage.Middleware" id="ent0020" data-source-line="32"><rect x="479.91" y="1043" width="288.17" height="46" rx="2.50" ry="2.50" fill="#F1F1F1" stroke="#181818" stroke-width="0.50"></rect><rect x="748.08" y="1048" width="15" height="10" fill="#F1F1F1" stroke="#181818" stroke-width="0.50"></rect><rect x="746.08" y="1050" width="4" height="2" fill="#F1F1F1" stroke="#181818" stroke-width="0.50"></rect><rect x="746.08" y="1054" width="4" height="2" fill="#F1F1F1" stroke="#181818" stroke-width="0.50"></rect><text x="494.91" y="1076" font-size="14" fill="#000000" xml:space="preserve" style="white-space: pre" font-family="sans-serif">Middleware (CORS, Helmet, Rate Limit)</text></g><g class="entity" data-qualified-name="APIPackage.AuthModule" id="ent0021" data-source-line="33"><rect x="564.67" y="1257" width="214.67" height="46" rx="2.50" ry="2.50" fill="#F1F1F1" stroke="#181818" stroke-width="0.50"></rect><rect x="759.34" y="1262" width="15" height="10" fill="#F1F1F1" stroke="#181818" stroke-width="0.50"></rect><rect x="757.34" y="1264" width="4" height="2" fill="#F1F1F1" stroke="#181818" stroke-width="0.50"></rect><rect x="757.34" y="1268" width="4" height="2" fill="#F1F1F1" stroke="#181818" stroke-width="0.50"></rect><text x="579.67" y="1290" font-size="14" fill="#000000" xml:space="preserve" style="white-space: pre" font-family="sans-serif">Auth Module (JWT + bcrypt)</text></g><g class="entity" data-qualified-name="APIPackage.Routes" id="ent0022" data-source-line="34"><rect x="444.14" y="1150" width="163.72" height="46" rx="2.50" ry="2.50" fill="#F1F1F1" stroke="#181818" stroke-width="0.50"></rect><rect x="587.86" y="1155" width="15" height="10" fill="#F1F1F1" stroke="#181818" stroke-width="0.50"></rect><rect x="585.86" y="1157" width="4" height="2" fill="#F1F1F1" stroke="#181818" stroke-width="0.50"></rect><rect x="585.86" y="1161" width="4" height="2" fill="#F1F1F1" stroke="#181818" stroke-width="0.50"></rect><text x="459.14" y="1183" font-size="14" fill="#000000" xml:space="preserve" style="white-space: pre" font-family="sans-serif">Routes / Controllers</text></g><g class="entity" data-qualified-name="APIPackage.Services" id="ent0023" data-source-line="35"><rect x="157.24" y="1257" width="199.52" height="46" rx="2.50" ry="2.50" fill="#F1F1F1" stroke="#181818" stroke-width="0.50"></rect><rect x="336.76" y="1262" width="15" height="10" fill="#F1F1F1" stroke="#181818" stroke-width="0.50"></rect><rect x="334.76" y="1264" width="4" height="2" fill="#F1F1F1" stroke="#181818" stroke-width="0.50"></rect><rect x="334.76" y="1268" width="4" height="2" fill="#F1F1F1" stroke="#181818" stroke-width="0.50"></rect><text x="172.24" y="1290" font-size="14" fill="#000000" xml:space="preserve" style="white-space: pre" font-family="sans-serif">Services / Business Logic</text></g><g class="entity" data-qualified-name="APIPackage.Validation" id="ent0024" data-source-line="36"><rect x="392.11" y="1257" width="137.79" height="46" rx="2.50" ry="2.50" fill="#F1F1F1" stroke="#181818" stroke-width="0.50"></rect><rect x="509.90" y="1262" width="15" height="10" fill="#F1F1F1" stroke="#181818" stroke-width="0.50"></rect><rect x="507.90" y="1264" width="4" height="2" fill="#F1F1F1" stroke="#181818" stroke-width="0.50"></rect><rect x="507.90" y="1268" width="4" height="2" fill="#F1F1F1" stroke="#181818" stroke-width="0.50"></rect><text x="407.11" y="1290" font-size="14" fill="#000000" xml:space="preserve" style="white-space: pre" font-family="sans-serif">Validation (Zod)</text></g><g class="entity" data-qualified-name="APIPackage.DBRepo" id="ent0025" data-source-line="37"><rect x="156.93" y="1364" width="190.14" height="46" rx="2.50" ry="2.50" fill="#F1F1F1" stroke="#181818" stroke-width="0.50"></rect><rect x="327.07" y="1369" width="15" height="10" fill="#F1F1F1" stroke="#181818" stroke-width="0.50"></rect><rect x="325.07" y="1371" width="4" height="2" fill="#F1F1F1" stroke="#181818" stroke-width="0.50"></rect><rect x="325.07" y="1375" width="4" height="2" fill="#F1F1F1" stroke="#181818" stroke-width="0.50"></rect><text x="171.93" y="1397" font-size="14" fill="#000000" xml:space="preserve" style="white-space: pre" font-family="sans-serif">Drizzle ORM Repository</text></g><g class="entity" data-qualified-name="APIPackage.StorageRepo" id="ent0026" data-source-line="38"><rect x="382.25" y="1364" width="157.50" height="46" rx="2.50" ry="2.50" fill="#F1F1F1" stroke="#181818" stroke-width="0.50"></rect><rect x="519.75" y="1369" width="15" height="10" fill="#F1F1F1" stroke="#181818" stroke-width="0.50"></rect><rect x="517.75" y="1371" width="4" height="2" fill="#F1F1F1" stroke="#181818" stroke-width="0.50"></rect><rect x="517.75" y="1375" width="4" height="2" fill="#F1F1F1" stroke="#181818" stroke-width="0.50"></rect><text x="397.25" y="1397" font-size="14" fill="#000000" xml:space="preserve" style="white-space: pre" font-family="sans-serif">S3 / R2 Repository</text></g><g class="entity" data-qualified-name="APIPackage.Logger" id="ent0027" data-source-line="39"><rect x="574.59" y="1364" width="124.83" height="46" rx="2.50" ry="2.50" fill="#F1F1F1" stroke="#181818" stroke-width="0.50"></rect><rect x="679.42" y="1369" width="15" height="10" fill="#F1F1F1" stroke="#181818" stroke-width="0.50"></rect><rect x="677.42" y="1371" width="4" height="2" fill="#F1F1F1" stroke="#181818" stroke-width="0.50"></rect><rect x="677.42" y="1375" width="4" height="2" fill="#F1F1F1" stroke="#181818" stroke-width="0.50"></rect><text x="589.59" y="1397" font-size="14" fill="#000000" xml:space="preserve" style="white-space: pre" font-family="sans-serif">Logger (Pino)</text></g><g class="entity" data-qualified-name="SharedPackage.Schemas" id="ent0029" data-source-line="43"><rect x="21.81" y="455" width="126.37" height="46" rx="2.50" ry="2.50" fill="#F1F1F1" stroke="#181818" stroke-width="0.50"></rect><rect x="128.18" y="460" width="15" height="10" fill="#F1F1F1" stroke="#181818" stroke-width="0.50"></rect><rect x="126.18" y="462" width="4" height="2" fill="#F1F1F1" stroke="#181818" stroke-width="0.50"></rect><rect x="126.18" y="466" width="4" height="2" fill="#F1F1F1" stroke="#181818" stroke-width="0.50"></rect><text x="36.81" y="488" font-size="14" fill="#000000" xml:space="preserve" style="white-space: pre" font-family="sans-serif">Zod Schemas</text></g><g class="entity" data-qualified-name="SharedPackage.Types" id="ent0030" data-source-line="44"><rect x="183.31" y="455" width="147.38" height="46" rx="2.50" ry="2.50" fill="#F1F1F1" stroke="#181818" stroke-width="0.50"></rect><rect x="310.69" y="460" width="15" height="10" fill="#F1F1F1" stroke="#181818" stroke-width="0.50"></rect><rect x="308.69" y="462" width="4" height="2" fill="#F1F1F1" stroke="#181818" stroke-width="0.50"></rect><rect x="308.69" y="466" width="4" height="2" fill="#F1F1F1" stroke="#181818" stroke-width="0.50"></rect><text x="198.31" y="488" font-size="14" fill="#000000" xml:space="preserve" style="white-space: pre" font-family="sans-serif">TypeScript Types</text></g><g class="entity" data-qualified-name="SharedPackage.I18n" id="ent0031" data-source-line="45"><rect x="365.70" y="455" width="118.60" height="46" rx="2.50" ry="2.50" fill="#F1F1F1" stroke="#181818" stroke-width="0.50"></rect><rect x="464.30" y="460" width="15" height="10" fill="#F1F1F1" stroke="#181818" stroke-width="0.50"></rect><rect x="462.30" y="462" width="4" height="2" fill="#F1F1F1" stroke="#181818" stroke-width="0.50"></rect><rect x="462.30" y="466" width="4" height="2" fill="#F1F1F1" stroke="#181818" stroke-width="0.50"></rect><text x="380.70" y="488" font-size="14" fill="#000000" xml:space="preserve" style="white-space: pre" font-family="sans-serif">i18n Helpers</text></g><g class="entity" data-qualified-name="External.DB" id="ent0033" data-source-line="49"><path d="M165.73,1639 C165.73,1629 252.00,1629 252.00,1629 C252.00,1629 338.26,1629 338.26,1639 L338.26,1664 C338.26,1674 252.00,1674 252.00,1674 C252.00,1674 165.73,1674 165.73,1664 L165.73,1639" fill="#F1F1F1" stroke="#181818" stroke-width="0.50"></path><path d="M165.73,1639 C165.73,1649 252.00,1649 252.00,1649 C252.00,1649 338.26,1649 338.26,1639" fill="#00000000" stroke="#181818" stroke-width="0.50"></path><text x="175.73" y="1666" font-size="14" fill="#000000" xml:space="preserve" style="white-space: pre" font-family="sans-serif">PostgreSQL (Supabase)</text></g><g class="entity" data-qualified-name="External.S3" id="ent0034" data-source-line="50"><rect x="575.84" y="1633.50" width="166.32" height="36" rx="35" ry="35" fill="#F1F1F1" stroke="#181818" stroke-width="0.50"></rect><text x="585.84" y="1656.50" font-size="14" fill="#000000" xml:space="preserve" style="white-space: pre" font-family="sans-serif">S3 Storage (Supabase)</text></g><g class="entity" data-qualified-name="External.R2" id="ent0035" data-source-line="51"><rect x="373.08" y="1633.50" width="167.85" height="36" rx="35" ry="35" fill="#F1F1F1" stroke="#181818" stroke-width="0.50"></rect><text x="383.08" y="1656.50" font-size="14" fill="#000000" xml:space="preserve" style="white-space: pre" font-family="sans-serif">R2 Storage (Cloudflare)</text></g><g class="entity" data-qualified-name="HTTPSIface" id="ent0036" data-source-line="54"><circle cx="1594" cy="216" r="8" fill="#F1F1F1" stroke="#181818" stroke-width="0.50"></circle><text x="1571.06" y="246" font-size="14" fill="#000000" xml:space="preserve" style="white-space: pre" font-family="sans-serif">HTTPS</text></g><g class="entity" data-qualified-name="APIIface" id="ent0037" data-source-line="55"><circle cx="669" cy="825" r="8" fill="#F1F1F1" stroke="#181818" stroke-width="0.50"></circle><text x="614.53" y="855" font-size="14" fill="#000000" xml:space="preserve" style="white-space: pre" font-family="sans-serif">REST API /api/v1</text></g><g class="entity" data-qualified-name="SQLIface" id="ent0038" data-source-line="56"><circle cx="252" cy="1518" r="8" fill="#F1F1F1" stroke="#181818" stroke-width="0.50"></circle><text x="237.99" y="1548" font-size="14" fill="#000000" xml:space="preserve" style="white-space: pre" font-family="sans-serif">SQL</text></g><g class="entity" data-qualified-name="S3Iface" id="ent0039" data-source-line="57"><circle cx="608" cy="1518" r="8" fill="#F1F1F1" stroke="#181818" stroke-width="0.50"></circle><text x="586.21" y="1548" font-size="14" fill="#000000" xml:space="preserve" style="white-space: pre" font-family="sans-serif">S3 API</text></g><g class="entity" data-qualified-name="R2Iface" id="ent0040" data-source-line="58"><circle cx="460" cy="1518" r="8" fill="#F1F1F1" stroke="#181818" stroke-width="0.50"></circle><text x="437.82" y="1548" font-size="14" fill="#000000" xml:space="preserve" style="white-space: pre" font-family="sans-serif">R2 API</text></g><g class="link" data-entity-1="ent0002" data-entity-2="ent0036" id="lnk41" data-source-line="61" data-link-type="dependency"><path d="M1594,124.33 C1594,149.8 1594,185.11 1594,202.07" fill="none" stroke="#181818" stroke-width="1"></path><polygon points="1594,207.07 1598,198.07 1594,202.07 1590,198.07 1594,207.07" fill="#181818" stroke="#181818" stroke-width="1"></polygon></g><g class="link" data-entity-1="ent0036" data-entity-2="ent0004" id="lnk42" data-source-line="62" data-link-type="dependency"><path d="M1594,224.86 C1594,244.57 1594,291.62 1594,321.7" fill="none" stroke="#181818" stroke-width="1"></path><polygon points="1594,326.70 1598,317.70 1594,321.70 1590,317.70 1594,326.70" fill="#181818" stroke="#181818" stroke-width="1"></polygon></g><g class="link" data-entity-1="ent0036" data-entity-2="ent0011" id="lnk43" data-source-line="63" data-link-type="dependency"><path d="M1585.2,219.07 C1534.14,231.11 1277.9366,291.5028 1134.1666,325.3928" fill="none" stroke="#181818" stroke-width="1"></path><polygon points="1129.30,326.54 1138.98,328.37 1134.17,325.39 1137.14,320.58 1129.30,326.54" fill="#181818" stroke="#181818" stroke-width="1"></polygon></g><g class="link" data-entity-1="ent0036" data-entity-2="ent0019" id="lnk44" data-source-line="64" data-link-type="dependency"><path d="M1602.83,217.33 C1658.05,219.55 1956,233.73 2029,284 C2056.38,302.85 2066,315.76 2066,349 C2066,349 2066,349 2066,826 C2066,893.07 1036.9253,942.2241 748.1153,954.7041" fill="none" stroke="#181818" stroke-width="1"></path><polygon points="743.12,954.92 752.28,958.53 748.12,954.70 751.94,950.54 743.12,954.92" fill="#181818" stroke="#181818" stroke-width="1"></polygon></g><g class="link" data-entity-1="ent0004" data-entity-2="ent0007" id="lnk45" data-source-line="67" data-link-type="dependency"><path d="M1594,373.24 C1594,396.13 1594,426.6 1594,449.56" fill="none" stroke="#181818" stroke-width="1"></path><polygon points="1594,454.56 1598,445.56 1594,449.56 1590,445.56 1594,454.56" fill="#181818" stroke="#181818" stroke-width="1"></polygon></g><g class="link" data-entity-1="ent0007" data-entity-2="ent0005" id="lnk46" data-source-line="68" data-link-type="dependency"><path d="M1594,501.43 C1594,519.69 1594,540.35 1594,558.6" fill="none" stroke="#181818" stroke-width="1"></path><polygon points="1594,563.60 1598,554.60 1594,558.60 1590,554.60 1594,563.60" fill="#181818" stroke="#181818" stroke-width="1"></polygon></g><g class="link" data-entity-1="ent0005" data-entity-2="ent0008" id="lnk47" data-source-line="69" data-link-type="dependency"><path d="M1613.51,610.27 C1629.12,628.09 1647.6143,649.1899 1663.2243,666.9999" fill="none" stroke="#181818" stroke-width="1"></path><polygon points="1666.52,670.76 1663.60,661.36 1663.22,667.00 1657.58,666.63 1666.52,670.76" fill="#181818" stroke="#181818" stroke-width="1"></polygon></g><g class="link" data-entity-1="ent0005" data-entity-2="ent0006" id="lnk48" data-source-line="70" data-link-type="dependency"><path d="M1570.88,610.27 C1552.39,628.09 1530.1711,649.4813 1511.6811,667.2913" fill="none" stroke="#181818" stroke-width="1"></path><polygon points="1508.08,670.76 1517.34,667.40 1511.68,667.29 1511.79,661.64 1508.08,670.76" fill="#181818" stroke="#181818" stroke-width="1"></polygon></g><g class="link" data-entity-1="ent0005" data-entity-2="ent0009" id="lnk49" data-source-line="71" data-link-type="dependency"><path d="M1650.5,607.14 C1703.24,625 1777.2244,650.0557 1832.9244,668.9257" fill="none" stroke="#181818" stroke-width="1"></path><polygon points="1837.66,670.53 1830.42,663.85 1832.92,668.93 1827.85,671.43 1837.66,670.53" fill="#181818" stroke="#181818" stroke-width="1"></polygon></g><g class="link" data-entity-1="ent0011" data-entity-2="ent0014" id="lnk50" data-source-line="74" data-link-type="dependency"><path d="M1031.53,373.24 C1028.99,396.13 1025.5919,426.6306 1023.0419,449.5906" fill="none" stroke="#181818" stroke-width="1"></path><polygon points="1022.49,454.56 1027.46,446.06 1023.04,449.59 1019.51,445.17 1022.49,454.56" fill="#181818" stroke="#181818" stroke-width="1"></polygon></g><g class="link" data-entity-1="ent0014" data-entity-2="ent0012" id="lnk51" data-source-line="75" data-link-type="dependency"><path d="M996.31,501.43 C977.03,519.69 953.5603,541.9119 934.2903,560.1619" fill="none" stroke="#181818" stroke-width="1"></path><polygon points="930.66,563.60 939.95,560.32 934.29,560.16 934.44,554.51 930.66,563.60" fill="#181818" stroke="#181818" stroke-width="1"></polygon></g><g class="link" data-entity-1="ent0012" data-entity-2="ent0015" id="lnk52" data-source-line="76" data-link-type="dependency"><path d="M891.94,610.27 C879.89,628.09 865.8803,648.8077 853.8403,666.6177" fill="none" stroke="#181818" stroke-width="1"></path><polygon points="851.04,670.76 859.39,665.54 853.84,666.62 852.77,661.06 851.04,670.76" fill="#181818" stroke="#181818" stroke-width="1"></polygon></g><g class="link" data-entity-1="ent0012" data-entity-2="ent0013" id="lnk53" data-source-line="77" data-link-type="dependency"><path d="M848.89,610.27 C802.55,628.03 742.6091,651.0014 696.1691,668.7914" fill="none" stroke="#181818" stroke-width="1"></path><polygon points="691.50,670.58 701.34,671.10 696.17,668.79 698.47,663.63 691.50,670.58" fill="#181818" stroke="#181818" stroke-width="1"></polygon></g><g class="link" data-entity-1="ent0012" data-entity-2="ent0016" id="lnk54" data-source-line="78" data-link-type="dependency"><path d="M930.12,610.27 C948.61,628.09 970.8289,649.4813 989.3189,667.2913" fill="none" stroke="#181818" stroke-width="1"></path><polygon points="992.92,670.76 989.21,661.64 989.32,667.29 983.66,667.40 992.92,670.76" fill="#181818" stroke="#181818" stroke-width="1"></polygon></g><g class="link" data-entity-1="ent0012" data-entity-2="ent0017" id="lnk55" data-source-line="79" data-link-type="dependency"><path d="M964.94,606.89 C1019.71,624.75 1097.1863,650.0201 1155.3063,668.9701" fill="none" stroke="#181818" stroke-width="1"></path><polygon points="1160.06,670.52 1152.74,663.93 1155.31,668.97 1150.26,671.53 1160.06,670.52" fill="#181818" stroke="#181818" stroke-width="1"></polygon></g><g class="link" data-entity-1="ent0006" data-entity-2="ent0037" id="lnk56" data-source-line="82" data-link-type="dependency"><path d="M1429.69,717.42 C1406.63,725.98 1379.35,735.09 1354,741 C1081.59,804.53 741.2257,821.012 682.6257,823.452" fill="none" stroke="#181818" stroke-width="1" stroke-dasharray="7,7"></path><polygon points="677.63,823.66 686.79,827.28 682.63,823.45 686.46,819.29 677.63,823.66" fill="#181818" stroke="#181818" stroke-width="1"></polygon><text x="1318.77" y="762" font-size="13" fill="#000000" xml:space="preserve" style="white-space: pre" font-family="sans-serif">uses</text></g><g class="link" data-entity-1="ent0013" data-entity-2="ent0037" id="lnk57" data-source-line="83" data-link-type="dependency"><path d="M639.27,717.47 C647.49,746.92 660.1453,792.2642 665.4953,811.4242" fill="none" stroke="#181818" stroke-width="1" stroke-dasharray="7,7"></path><polygon points="666.84,816.24 668.27,806.50 665.50,811.42 660.57,808.65 666.84,816.24" fill="#181818" stroke="#181818" stroke-width="1"></polygon><text x="653.08" y="762" font-size="13" fill="#000000" xml:space="preserve" style="white-space: pre" font-family="sans-serif">uses</text></g><g class="link" data-entity-1="ent0037" data-entity-2="ent0019" id="lnk58" data-source-line="84" data-link-type="association"><path d="M669,833.86 C669,853.57 669,905.62 669,935.7" fill="none" stroke="#181818" stroke-width="1"></path></g><g class="link" data-entity-1="ent0019" data-entity-2="ent0020" id="lnk59" data-source-line="87" data-link-type="dependency"><path d="M659.46,982.27 C651.82,1000.09 643.129,1020.354 635.499,1038.164" fill="none" stroke="#181818" stroke-width="1"></path><polygon points="633.53,1042.76 640.75,1036.06 635.50,1038.16 633.40,1032.91 633.53,1042.76" fill="#181818" stroke="#181818" stroke-width="1"></polygon></g><g class="link" data-entity-1="ent0020" data-entity-2="ent0022" id="lnk60" data-source-line="88" data-link-type="dependency"><path d="M603.22,1089.27 C586.59,1107.09 566.7924,1128.2955 550.1624,1146.1055" fill="none" stroke="#181818" stroke-width="1"></path><polygon points="546.75,1149.76 555.82,1145.91 550.16,1146.11 549.97,1140.45 546.75,1149.76" fill="#181818" stroke="#181818" stroke-width="1"></polygon></g><g class="link" data-entity-1="ent0022" data-entity-2="ent0021" id="lnk61" data-source-line="89" data-link-type="dependency"><path d="M556.96,1196.27 C581.66,1214.03 612.02,1235.8717 636.77,1253.6617" fill="none" stroke="#181818" stroke-width="1"></path><polygon points="640.83,1256.58 635.86,1248.08 636.77,1253.66 631.19,1254.58 640.83,1256.58" fill="#181818" stroke="#181818" stroke-width="1"></polygon></g><g class="link" data-entity-1="ent0022" data-entity-2="ent0024" id="lnk62" data-source-line="90" data-link-type="dependency"><path d="M512.22,1196.27 C501.18,1214.09 488.4226,1234.6992 477.3926,1252.5092" fill="none" stroke="#181818" stroke-width="1"></path><polygon points="474.76,1256.76 482.90,1251.21 477.39,1252.51 476.10,1247.00 474.76,1256.76" fill="#181818" stroke="#181818" stroke-width="1"></polygon></g><g class="link" data-entity-1="ent0022" data-entity-2="ent0023" id="lnk63" data-source-line="91" data-link-type="dependency"><path d="M468.62,1196.4 C423.1,1214.16 364.4478,1237.0619 318.9478,1254.8219" fill="none" stroke="#181818" stroke-width="1"></path><polygon points="314.29,1256.64 324.13,1257.09 318.95,1254.82 321.22,1249.64 314.29,1256.64" fill="#181818" stroke="#181818" stroke-width="1"></polygon></g><g class="link" data-entity-1="ent0023" data-entity-2="ent0027" id="lnk64" data-source-line="92" data-link-type="dependency"><path d="M338.05,1303.4 C408.68,1322.91 504.8105,1349.4787 569.4305,1367.3287" fill="none" stroke="#181818" stroke-width="1"></path><polygon points="574.25,1368.66 566.64,1362.41 569.43,1367.33 564.51,1370.12 574.25,1368.66" fill="#181818" stroke="#181818" stroke-width="1"></polygon></g><g class="link" data-entity-1="ent0023" data-entity-2="ent0025" id="lnk65" data-source-line="93" data-link-type="dependency"><path d="M255.94,1303.27 C255.09,1321.09 254.1484,1340.9557 253.2984,1358.7657" fill="none" stroke="#181818" stroke-width="1"></path><polygon points="253.06,1363.76 257.48,1354.96 253.30,1358.77 249.49,1354.58 253.06,1363.76" fill="#181818" stroke="#181818" stroke-width="1"></polygon></g><g class="link" data-entity-1="ent0023" data-entity-2="ent0026" id="lnk66" data-source-line="94" data-link-type="dependency"><path d="M300.51,1303.4 C335.03,1321.16 378.6045,1343.5915 413.1045,1361.3515" fill="none" stroke="#181818" stroke-width="1"></path><polygon points="417.55,1363.64 411.38,1355.96 413.10,1361.35 407.72,1363.08 417.55,1363.64" fill="#181818" stroke="#181818" stroke-width="1"></polygon></g><g class="link" data-entity-1="ent0025" data-entity-2="ent0038" id="lnk67" data-source-line="97" data-link-type="dependency"><path d="M252,1410.47 C252,1439.92 252,1485.08 252,1504.24" fill="none" stroke="#181818" stroke-width="1" stroke-dasharray="7,7"></path><polygon points="252,1509.24 256,1500.24 252,1504.24 248,1500.24 252,1509.24" fill="#181818" stroke="#181818" stroke-width="1"></polygon><text x="253" y="1455" font-size="13" fill="#000000" xml:space="preserve" style="white-space: pre" font-family="sans-serif">uses</text></g><g class="link" data-entity-1="ent0038" data-entity-2="ent0033" id="lnk68" data-source-line="98" data-link-type="association"><path d="M252,1526.83 C252,1546.52 252,1598.62 252,1628.54" fill="none" stroke="#181818" stroke-width="1"></path></g><g class="link" data-entity-1="ent0026" data-entity-2="ent0039" id="lnk69" data-source-line="99" data-link-type="dependency"><path d="M486.61,1410.47 C520.17,1439.92 573.5721,1486.7818 595.4021,1505.9418" fill="none" stroke="#181818" stroke-width="1" stroke-dasharray="7,7"></path><polygon points="599.16,1509.24 595.03,1500.30 595.40,1505.94 589.76,1506.31 599.16,1509.24" fill="#181818" stroke="#181818" stroke-width="1"></polygon><text x="539.91" y="1455" font-size="13" fill="#000000" xml:space="preserve" style="white-space: pre" font-family="sans-serif">uses</text></g><g class="link" data-entity-1="ent0026" data-entity-2="ent0040" id="lnk70" data-source-line="100" data-link-type="dependency"><path d="M460.83,1410.47 C460.6,1439.92 460.2491,1485.0802 460.0991,1504.2402" fill="none" stroke="#181818" stroke-width="1" stroke-dasharray="7,7"></path><polygon points="460.06,1509.24 464.13,1500.27 460.10,1504.24 456.13,1500.21 460.06,1509.24" fill="#181818" stroke="#181818" stroke-width="1"></polygon><text x="461.56" y="1455" font-size="13" fill="#000000" xml:space="preserve" style="white-space: pre" font-family="sans-serif">uses</text></g><g class="link" data-entity-1="ent0039" data-entity-2="ent0034" id="lnk71" data-source-line="101" data-link-type="association"><path d="M611.04,1526.83 C619.1,1547.62 641.19,1604.57 652.35,1633.36" fill="none" stroke="#181818" stroke-width="1"></path></g><g class="link" data-entity-1="ent0040" data-entity-2="ent0035" id="lnk72" data-source-line="102" data-link-type="association"><path d="M459.82,1526.83 C459.35,1547.62 458.05,1604.57 457.39,1633.36" fill="none" stroke="#181818" stroke-width="1"></path></g><g class="link" data-entity-1="ent0029" data-entity-2="ent0023" id="lnk73" data-source-line="105" data-link-type="dependency"><path d="M105.735,505.4066 C120.435,526.1066 136,554.31 136,586 C136,586 136,586 136,1174 C136,1211.97 170.4,1239.3 202.52,1256.54" fill="none" stroke="#181818" stroke-width="1"></path><polygon points="102.84,501.33 104.79,510.98 105.74,505.41 111.31,506.35 102.84,501.33" fill="#181818" stroke="#181818" stroke-width="1"></polygon></g><g class="link" data-entity-1="ent0030" data-entity-2="ent0023" id="lnk74" data-source-line="106" data-link-type="dependency"><path d="M257,506.13 C257,527.77 257,556.65 257,586 C257,586 257,586 257,1174 C257,1202.62 257,1235.63 257,1256.88" fill="none" stroke="#181818" stroke-width="1"></path><polygon points="257,501.13 253,510.13 257,506.13 261,510.13 257,501.13" fill="#181818" stroke="#181818" stroke-width="1"></polygon></g><g class="link" data-entity-1="ent0030" data-entity-2="ent0006" id="lnk75" data-source-line="107" data-link-type="dependency"><path d="M296.7064,503.7362 C313.0164,512.8362 328.64,519.95 348,525 C439.68,548.91 466.32,530.21 561,534 C649.1,537.53 1273.06,529.03 1354,564 C1406.16,586.53 1449.12,640.1 1470.45,670.65" fill="none" stroke="#181818" stroke-width="1"></path><polygon points="292.34,501.30 298.25,509.18 296.71,503.74 302.15,502.19 292.34,501.30" fill="#181818" stroke="#181818" stroke-width="1"></polygon></g><g class="link" data-entity-1="ent0030" data-entity-2="ent0013" id="lnk76" data-source-line="108" data-link-type="dependency"><path d="M300.8756,503.973 C373.1856,545.123 521.6,629.59 593.72,670.64" fill="none" stroke="#181818" stroke-width="1"></path><polygon points="296.53,501.50 302.37,509.43 300.88,503.97 306.33,502.47 296.53,501.50" fill="#181818" stroke="#181818" stroke-width="1"></polygon></g><g class="link" data-entity-1="ent0031" data-entity-2="ent0005" id="lnk77" data-source-line="109" data-link-type="dependency"><path d="M468.1419,503.546 C485.9219,512.636 503.19,519.92 524,525 C716.32,571.94 1216.71,547.65 1414,564 C1455.57,567.45 1502.33,573.22 1537.77,577.99" fill="none" stroke="#181818" stroke-width="1"></path><polygon points="463.69,501.27 469.88,508.93 468.14,503.55 473.52,501.81 463.69,501.27" fill="#181818" stroke="#181818" stroke-width="1"></polygon></g><g class="link" data-entity-1="ent0031" data-entity-2="ent0012" id="lnk78" data-source-line="110" data-link-type="dependency"><path d="M437.5752,505.6869 C444.1052,517.3969 451.32,526.47 464,534 C527.77,571.83 744.03,582.16 848.95,584.96" fill="none" stroke="#181818" stroke-width="1"></path><polygon points="435.14,501.32 436.03,511.13 437.58,505.69 443.02,507.23 435.14,501.32" fill="#181818" stroke="#181818" stroke-width="1"></polygon></g><?plantuml-src ZLLHRzis47xNhxWv3tEmkbxi6Ms7ebZiM4W61tKajmLMv86MM8U8B0eKbSGTzjztv96KB3HjauTGttsyEtxaVVb5t_4zXwfWeepgUr5MJB4zR5bslrEoAVE5BAI2atXfVZkCJEuhMV9If_fGS6ZsnIIAjD2uNlWGN0YsC-GHp6N5CgcgACA_zsp7OH0hMMfUvh1Y1wu6m6hma4NWP3cD9_45_1i1_dp-nBSmL_AnvkhMaDqw-g-JS-lAZ1xvrcR4JMiNF8cdorayy-dMpROG6QJhSnWcd6KQpjx0R_1HQ7vwwxPYiAsznYJrRKYA7stiV7q5YqAOCm_FduIiGmf2YKbb4jbeFDt3AqyXe4kvbF8UOgdsdcBMhjo6YU9He6oBD8M7Fx3b-exbMJbkX6T_kFgsA9dQMr4MoNKGPNaMp-Ab5mKZtr44eq4HmsmLiHc38YRsZ28O-f4YIFcH8aWvKgHCDPu7RXgk3g5JpJJ_EScG_Pnah19MCZnEAzdhUBPyuoLRFbMArpNC8ENgmRtDoyrcJPz4kXPvNl17fZWC5--Jz0LSycBFzGj8i4jOYRtG953Bf9tdZRw3QvatE5Z3lpzjiFbjfWwLevimHPrQHhaQnZY4fLQoABYY6w80aKnd8hEqULEBqhI_aZkHMQQF4lSZAqJEj90b3F-HELLjGI9TAF7rApRu7Yy-uPMiXPRk9Yxc1d1rfrWncVGfAQvGs9Q7lUpmFGpNefHKa92ZA_hBtz4OBrFnt5vJQfVjnCSuyx_xcyBs8StGxnX9ujRkZHmgdcPAL1hCaXXsHN5nzheqbrPvGQyGE6fe-OHljcH54D1s5D0JdBFMVb0zjcKrRblBMkyKJszMC4oRogAd0vBEKckI1mOedvEgpqodnqpKE30NXMpoBmNgGjnaOheUdiB0Fj91UAvNNrZ6RI1PfXixm6Dy_kE7Cpy1BGExfS8tgmuuDIJNK2VR9C39XE3eL-_U8D3m5KuulgKwyk1ezAxRKxkq4MVCFTIPKm_j328MDLPjxCqMnKk9A9NFwcmdh3nErkON7YK7wgFEtVem-WlMz_OQwbFJldzNFwmyJlNzmgDKlu-w-dsOtB2FKbVcfZExhGOjxVz-_1ySXSF0ovVlmlN3dz3KrCrtek5xDEfTmPoojnAqOTjLn_ywfcaYpi6SmncaOtuTj6DE7JIuMZ0_WpfVESASOnrXNOl2GmG34znAnlsGrxuA9R7Q-1dnseHlr0P7l9EQwDDZTY_iHYY4fo4Nce0FuXUEEJPAVWY5s2gc3hW5KqNEz-2jsUGRjbRt7DI-wnPhtvfnGa-ZfngGy7Z_1m00?></g></svg>
